<svg width="39" height="39" viewBox="0 0 39 39" fill="none" xmlns="http://www.w3.org/2000/svg">
<path d="M3.36859 10.1822C3.68296 9.7825 4.09696 9.24137 4.4285 8.85462C5.42141 7.78862 5.55025 7.64888 6.45383 6.86075C6.72181 6.65275 7.03961 6.4025 7.35054 6.16687C5.05723 8.00313 4.7652 10.036 6.86955 11.2921C6.86611 11.2921 6.86611 11.2921 6.86611 11.2954C9.80877 12.9724 16.2575 12.61 21.3458 10.4618C26.2743 8.38175 28.0934 5.40638 25.661 3.63838C23.5257 3.25975 20.9799 3.21587 18.2863 3.55712L18.0063 3.12L18.2382 2.39525C19.8221 2.26037 21.3269 2.29288 22.6256 2.5025C22.9399 2.55287 23.3539 2.639 23.6631 2.70075C24.2609 2.83887 24.5856 2.92175 24.9756 3.04038C25.3741 3.1525 25.7142 3.26463 26.3069 3.47263C26.8875 3.68875 27.1383 3.78625 27.6039 4.00562C28.1252 4.23063 28.6317 4.48513 29.1207 4.76775C32.9962 7.07363 30.586 11.2807 23.7473 14.1635C16.9275 17.0365 8.23695 17.4882 4.34261 15.21C4.34089 15.2067 4.33574 15.2035 4.32543 15.2003H4.3323C2.20562 13.9263 1.9823 12.077 3.36859 10.1822ZM21.1121 26.3023L21.0572 23.712L19.1109 21.6645C12.681 23.0425 6.36107 22.7468 2.84637 20.7886C2.83435 20.7756 2.80514 20.7626 2.79312 20.7496C0.803861 19.591 0.312559 18.096 0.462011 16.471C-0.00352327 18.8484 -0.0413157 19.7064 0.02568 21.7409C0.108136 23.0149 0.886317 24.1898 2.45127 25.116L2.46329 25.129C6.2099 27.3325 14.0158 27.8103 21.1121 26.3023ZM29.2289 29.2679C20.1536 32.7112 8.79525 32.9144 3.86161 29.7278C4.39441 30.9594 5.11938 32.1086 6.01235 33.137C10.5406 36.062 20.9661 35.8751 29.2925 32.7145C34.166 30.8669 37.2409 28.4082 38.0483 26.104L38.2751 25.4101C38.8128 23.6519 38.9141 22.1878 39 20.8845C38.9021 23.7136 35.3788 26.9311 29.2289 29.2679ZM9.1955 35.8995C9.48066 36.1562 10.3774 37.1979 14.9211 38.3484C16.1493 38.6051 19.2414 39.429 24.9532 38.2314L24.9876 37.739L24.5358 37.0695C19.2363 38.2558 13.3492 37.8592 9.1955 35.8995ZM22.3095 15.4099L27.1349 18.8695C27.1349 18.8695 28.1673 19.5731 27.1933 20.0671C26.2227 20.5563 23.7301 21.7539 23.7301 21.7539L21.2685 20.8845L20.0333 21.4045L22.2116 23.1936L22.2287 25.9773L23.5085 25.4394L24.3571 23.088C24.3571 23.088 26.9631 22.139 27.9972 21.7815C29.0365 21.4321 28.8974 22.6281 28.8974 22.6281L28.3855 28.3335L30.0861 27.6185L32.8862 19.9209C32.8862 19.9209 34.3704 19.2384 35.4149 18.6388C36.4576 18.0391 36.8149 17.0446 36.8149 17.0446C36.8149 17.0446 35.798 16.6302 34.6264 16.9634C33.4548 17.2932 31.9277 17.8815 31.9277 17.8815L24.005 14.6981L22.3095 15.4099ZM12.1004 4.46388L15.3763 6.93225L16.2713 6.8055L14.4882 4.59063C14.4882 4.59063 14.0999 4.13237 14.6222 4.0235C15.1478 3.913 16.4774 3.65625 16.4774 3.65625L17.4772 4.41187L18.1506 4.31763L17.3879 3.17037L17.7898 1.898L17.1388 1.98738L16.3675 2.95587C16.3675 2.95587 15.0138 3.07613 14.4813 3.11838C13.9453 3.15738 14.1755 2.613 14.1755 2.613L15.2028 0L14.3026 0.125125L11.932 3.38975C11.932 3.38975 11.1418 3.52625 10.5698 3.68063C9.99601 3.83338 9.69367 4.25263 9.69367 4.25263C9.69367 4.25263 10.1145 4.57437 10.7072 4.563C11.305 4.55162 12.1004 4.46388 12.1004 4.46388ZM28.291 36.1806L26.1712 35.1325L25.6833 35.2934L26.9391 36.3561C26.9391 36.3561 27.207 36.5722 26.9253 36.6876C26.6436 36.8014 25.9255 37.0809 25.9255 37.0809L25.3329 36.8306L24.9807 36.9509L25.4737 37.4481L25.4256 38.1745L25.7933 38.0542L26.0681 37.4644C26.0681 37.4644 26.8137 37.2547 27.1108 37.18C27.4063 37.1036 27.3393 37.4319 27.3393 37.4319L27.0593 39L27.5489 38.8391L28.5092 36.7656C28.5092 36.7656 28.9335 36.608 29.2375 36.4634C29.5416 36.3187 29.6618 36.0522 29.6618 36.0522C29.6618 36.0522 29.3921 35.9125 29.0589 35.9824C28.7239 36.049 28.291 36.1806 28.291 36.1806Z" fill="#666666"/>
</svg>
